<?xml version="1.0" encoding="UTF-8" standalone="no"?>
<svg width="239px" height="62px" viewBox="0 0 239 62" version="1.1" xmlns="http://www.w3.org/2000/svg" xmlns:xlink="http://www.w3.org/1999/xlink">
    <!-- Generator: Sketch 42 (36781) - http://www.bohemiancoding.com/sketch -->
    <title>apartment-therapy-img</title>
    <desc>Created with Sketch.</desc>
    <defs>
        <polygon id="path-1" points="0.000301765657 60.8112081 80.1250368 60.8112081 80.1250368 0.0395870461 0.000301765657 0.0395870461"></polygon>
    </defs>
    <g id="Final" stroke="none" stroke-width="1" fill="none" fill-rule="evenodd">
        <g id="Homepage-Desktop" transform="translate(-495.000000, -4305.000000)">
            <g id="Group-34" transform="translate(0.000000, 4252.000000)">
                <g id="Group-32" transform="translate(239.000000, 53.000000)">
                    <g id="apartment-therapy-img" transform="translate(256.000000, 0.000000)">
                        <g id="Apartment-Therapy">
                            <g id="Page-1">
                                <g id="logo-at">
                                    <g id="Page-1">
                                        <g id="Group-3" transform="translate(0.000000, 0.432143)">
                                            <g id="Fill-1-Clipped">
                                                <mask id="mask-2" fill="white">
                                                    <use xlink:href="#path-1"></use>
                                                </mask>
                                                <g id="path-1"></g>
                                                <path d="M33.3688767,13.3593677 L33.3192071,13.6379982 C32.4411208,18.5717103 30.6725307,21.2621807 27.7863764,22.4867352 C27.0803595,22.7866623 26.3388643,22.9375132 25.5849518,22.9375132 C21.6397721,22.9375132 19.732817,19.2194819 19.048087,17.9896033 C18.4006093,16.8236145 17.7992532,15.4606321 17.1641928,14.0177875 C15.5126809,10.2624872 12.9653436,5.72986093 10.3027021,5.72986093 C9.62329388,5.72986093 8.67425111,5.84521751 7.75713874,6.34746232 C5.89453137,7.36792436 5.9140444,8.34579322 5.86792269,8.70783539 C5.46701864,11.9218472 8.29286006,14.9779092 12.1812746,18.60543 C12.6283004,19.0242631 13.1072566,19.4555192 13.6145954,19.9116214 C15.8887502,21.9578696 18.3243311,24.2774243 19.9758429,27.085026 C20.9745552,28.781655 21.661059,30.5120038 21.7710416,32.2281547 C21.8969893,34.2193868 21.299181,36.2070694 20.2383818,38.137961 C19.551878,39.3891363 18.767809,40.386527 17.8169923,41.4691041 C15.1596724,44.4932212 14.1911167,47.1002799 15.2394985,49.4659772 C15.792959,50.713603 17.0453406,51.7464881 18.2391833,51.9452563 C18.7589394,52.0304427 19.2467652,52.0730359 19.692017,52.0730359 C23.1653362,52.0730359 24.7902394,49.7942998 25.561891,43.4319407 C25.882969,40.7893877 27.2027594,38.0492252 28.4214367,35.8734226 C30.0694008,32.9327172 32.4499904,31.6034544 35.4940229,31.3727413 C35.7193097,31.3549941 35.9463704,31.3461206 36.1663355,31.3461206 C38.4156556,31.3461206 40.3829237,32.2281547 41.8534966,33.8963883 C42.9763827,35.1741843 43.7178778,36.6383255 44.1258775,38.6632772 C44.4540512,40.2889176 44.3795469,42.2304576 44.1719992,43.8720704 C44.1081384,44.3689911 44.0318602,44.8907577 43.9520342,45.4444693 C43.5564519,48.1775329 42.9657392,52.7527524 44.2908513,54.3783928 C44.4363121,54.5558644 44.8212509,55.0279391 46.1623282,55.1042519 C46.3397194,55.1149002 46.5135628,55.1202243 46.6820844,55.1202243 C48.5890395,55.1202243 49.3908476,54.1831739 49.8290038,53.6986763 C51.0938029,52.2984249 51.8796458,49.5103451 51.4805157,45.5669248 C51.4113331,44.8872083 51.232168,43.8862682 51.0423594,42.828537 C50.6006554,40.3794281 50.0241341,37.3162673 50.0968645,34.4518746 C50.1997514,30.4108449 51.2818375,27.880099 53.8611052,26.3467439 C54.7001655,25.8480485 55.7361299,25.5960387 56.6674336,25.5960387 C58.4182845,25.5960387 60.197518,26.1816952 61.6787343,27.8889726 C62.7679161,29.1436973 63.5253764,30.5829924 63.880159,31.3283734 C64.4424886,32.5085599 64.722767,33.6869717 65.1307663,34.8245651 C65.9059659,36.9950435 66.5481221,39.0501654 67.9619297,40.3776534 C68.8914595,41.250814 69.8671108,41.5915596 70.7079453,41.5915596 C71.4636315,41.5915596 72.3612309,41.156754 73.045961,40.3847523 C74.266412,39.0093469 74.8180988,37.2648005 74.686829,35.200805 C74.5112118,32.4535437 73.3830043,29.4063553 71.3784837,27.6582594 C70.40638,26.8099449 68.6714943,26.2047665 67.2789737,25.4150176 C65.2584885,24.2703254 63.5874637,23.3102037 62.0760908,21.5319377 C60.1035007,19.2141578 59.5766489,16.200689 60.5061787,13.0203968 C60.5505265,12.8695459 60.5948743,12.718695 60.640996,12.5660693 C61.5155347,9.60584204 61.6876036,8.28545283 60.8077436,7.46198434 C60.4157092,7.09461799 59.5181098,7.03960178 59.4169968,7.03960178 C58.9167537,7.03960178 58.2515368,7.29338626 57.724685,7.90211405 C57.222668,8.48422111 56.7224249,9.36270587 56.1937992,10.294432 C55.4611736,11.5811016 54.6309829,13.0416934 53.4814881,14.2396271 C51.9293153,15.8546192 50.2121687,16.8111915 48.1029877,16.8573341 C48.0533181,16.8591088 48.0018747,16.8591088 47.9522052,16.8591088 C44.517912,16.8591088 42.529357,14.484538 41.7364184,13.6308993 C41.1031319,12.9476334 40.276489,11.7922929 39.6414286,10.7807044 C39.0010465,9.75491823 38.2489079,8.61377541 37.5180563,7.78853218 C35.3485621,5.33587384 34.0837631,9.32188736 33.3688767,13.3593677 M27.9992458,12.4755588 L28.0471414,12.2022524 C28.6006018,9.07165234 29.1593841,4.24264841 32.6699554,2.12541148 C33.863798,1.40487654 35.0966667,1.13866905 36.3313093,1.13866905 C40.4875845,1.13866905 43.1608695,5.25778631 44.8514074,7.82757596 C45.7933546,9.25977231 46.5650062,11.0291647 47.8120661,11.0291647 L47.835127,11.02739 C48.9580132,11.002544 49.7811082,10.0743672 51.2640984,7.46908319 C51.9098023,6.33326455 52.7169322,5.16195161 53.5914706,4.14681371 C55.251852,2.22657033 56.9175552,1.58589763 59.1384927,1.58589763 C60.8840218,1.58589763 63.1262464,2.22834505 64.483289,3.49726743 C66.1543139,5.06079277 66.7787308,7.09994218 66.6953565,9.58454542 C66.635044,11.3841081 66.124157,12.693849 65.6718096,14.2183305 C65.6292358,14.365632 65.5866619,14.5129335 65.544088,14.6566855 C65.065132,16.2947489 65.5068359,17.7003245 65.9591832,18.2309647 C66.8017912,19.2230314 68.3628338,20.1068403 70.0143459,21.0421159 C71.5984489,21.9401225 73.2357693,22.3092636 74.6531251,23.5444663 C77.8177835,26.3077001 79.8134341,30.5439486 80.0866166,34.8281146 C80.3172253,38.4503112 79.5260605,41.4282856 77.269645,43.9732293 C75.4549333,46.0194775 73.1967436,47.1002799 70.7363275,47.1002799 C68.3717032,47.1002799 66.1951136,46.2253446 64.1515674,44.3051013 C61.7124388,42.0139421 60.8325784,39.3021751 59.9332051,36.7874017 C59.5589098,35.7385442 59.23251,34.7482523 58.7979016,33.8342733 C58.1628413,32.4996864 57.7140415,31.2857802 56.7419379,31.2857802 C55.7698343,31.2857802 55.7041995,33.4402862 55.674043,34.6133739 C55.6172779,36.8832364 56.2186339,39.6074264 56.6124424,41.795652 C56.8324074,43.0202065 57.0239899,44.0761628 57.1144594,44.9812683 C58.0776935,54.5043977 53.5684098,60.8117405 46.8222234,60.8117405 C46.5419453,60.8117405 46.2545716,60.8028669 45.965424,60.7851198 C42.7422264,60.5987745 40.8672016,59.1417322 39.8862284,57.940249 C36.9379871,54.3287007 37.7894647,48.6247615 38.3908208,44.4701499 C38.467099,43.9412844 38.5398294,43.442589 38.5965946,42.9953604 C38.8662291,40.8763488 38.3854991,38.6419805 37.4772563,37.6108702 C37.1171522,37.2026854 36.7375351,37.0376367 36.1663355,37.0376367 C36.0936051,37.0376367 36.015553,37.0394114 35.9375008,37.0465103 C33.7183372,37.2151084 32.838477,39.547086 31.4867563,44.7558793 C30.7292959,47.6752881 30.085366,50.832509 28.5456105,53.3046892 C26.5286729,56.5417723 23.4580316,58.0449573 19.692017,58.0449573 C18.9310089,58.0449573 18.1203312,57.9739686 17.2883666,57.8373155 C15.6971678,57.5746574 14.1201602,56.8292764 12.7258655,55.6828095 C11.43091,54.6179795 10.3701107,53.249673 9.74037207,51.828125 C8.62280765,49.3080274 8.60152071,46.0957903 9.67651121,43.3875728 C10.5102498,41.2845336 11.4752578,40.1682369 12.6992568,38.5053274 C13.4744563,37.4511457 14.485586,36.2461131 14.987603,35.3321341 C15.9809936,33.5219231 16.2080543,31.9406506 15.0904899,30.0399291 C13.8948734,28.0078786 11.6739359,26.0095477 9.71376341,24.2454794 C9.18513769,23.7698553 8.68844238,23.3226267 8.20239059,22.8682993 C3.87404588,18.830819 -0.672489945,14.2751214 0.0831964613,8.24995851 C0.326222372,6.29599551 1.25397822,3.26300484 4.95258423,1.23450374 C6.73891337,0.254860172 8.49153818,0.0383447445 10.1625631,0.0383447445 C13.1498304,0.0383447445 15.7823155,1.28774524 17.9855139,4.30298877 C19.6086432,6.52315925 20.8486075,9.24202509 21.8721546,11.6698375 C23.410136,15.3204295 26.1171254,23.5497905 27.9992458,12.4755588" id="Fill-1" fill="#B1B9C3" fill-rule="nonzero" mask="url(#mask-2)"></path>
                                            </g>
                                        </g>
                                        <path d="M189.009056,37.8761903 C188.762482,37.3402259 189.009056,36.9693102 189.628151,36.9693102 L191.730236,36.9693102 C192.060184,36.9693102 192.306758,37.1751773 192.430932,37.4236376 L198.240493,50.040098 L198.283067,50.040098 L203.76268,37.4236376 C203.886854,37.1751773 204.174227,36.9693102 204.463375,36.9693102 L206.318887,36.9693102 C206.936208,36.9693102 207.225356,37.3810444 206.936208,37.9170088 L196.832007,59.2437784 C196.709607,59.4922387 196.420459,59.7389243 196.131312,59.7389243 L194.607521,59.7389243 C193.988426,59.7389243 193.658478,59.2863716 193.947626,58.707814 L196.674128,53.4209331 L189.009056,37.8761903 Z" id="Fill-4" fill="#B1B9C3" fill-rule="nonzero"></path>
                                        <path d="M160.420872,50.9095317 C162.482156,50.9095317 164.254294,49.9210145 164.95499,48.8899042 L164.95499,45.8320674 C164.461843,45.3262732 162.954017,44.5666945 161.14108,44.5666945 C158.83322,44.5666945 157.247343,45.5481128 157.247343,47.6919705 C157.247343,49.3424569 158.648734,50.9095317 160.420872,50.9095317 M161.492314,42.2080961 C163.264452,42.2080961 164.99579,43.3243929 164.99579,43.3243929 C165.03659,40.2718803 163.798399,38.8698542 161.44974,38.8698542 C159.182681,38.8698542 158.113012,39.4892303 157.371517,39.7785091 C156.958195,39.941783 156.711622,39.7359159 156.587448,39.3650001 L156.2575,38.3338897 C156.092526,37.8405185 156.340874,37.5920582 156.711622,37.4270096 C156.958195,37.3045541 158.481986,36.3550807 161.57214,36.3550807 C165.776311,36.3550807 167.674397,38.4989384 167.674397,43.3243929 L167.674397,52.4766065 C167.674397,52.8901154 167.303649,53.2610312 166.892101,53.2610312 L165.811789,53.2610312 C165.357668,53.2610312 165.235268,53.0125709 165.111094,52.6416551 L165.077389,51.5289078 C164.21172,52.3949695 162.522957,53.3834866 159.96675,53.3834866 C157.082369,53.3834866 154.609536,50.9911686 154.609536,47.6919705 C154.609536,44.5595957 157.247343,42.2080961 161.492314,42.2080961" id="Fill-6" fill="#B1B9C3" fill-rule="nonzero"></path>
                                        <path d="M136.582158,43.5357616 L127.506825,43.5357616 C127.253156,43.5357616 127.223,43.3156967 127.219452,43.2535817 C127.625678,40.8701373 129.678094,39.0599263 132.299935,39.0599263 C134.669882,39.0599263 136.553776,40.9925927 136.82341,43.2251862 C136.825184,43.3298945 136.80035,43.5357616 136.582158,43.5357616 M132.299935,36.5770977 C127.379104,36.5770977 124.327976,40.5240675 124.327976,45.1223583 C124.327976,49.802286 127.379104,53.6676188 132.299935,53.6676188 C135.106264,53.6676188 137.302367,52.5690692 138.278018,51.7952928 C138.888243,51.3480641 138.725044,51.1031532 138.441218,50.7375616 C138.196418,50.4127885 137.992418,50.1270591 137.749392,49.802286 C137.424767,49.3550574 137.179966,49.5573751 136.610541,49.8839229 C135.675689,50.453607 134.292038,51.1031532 132.583761,51.1031532 C129.816459,51.1031532 127.503278,48.7481043 127.171556,46.1516939 C127.1822,45.9032336 127.375556,45.8144978 127.375556,45.8144978 L138.847443,45.8144978 C139.21287,45.8144978 139.539269,45.5287684 139.580069,45.1223583 C139.620869,44.8384036 139.661669,44.309538 139.661669,44.0238087 C139.661669,39.7520658 136.569741,36.5770977 132.299935,36.5770977" id="Fill-8" fill="#B1B9C3" fill-rule="nonzero"></path>
                                        <path d="M102.895397,50.2495146 C102.691397,49.9247414 102.52997,49.6798305 101.919745,50.0046037 C101.919745,50.0046037 101.000859,51.0090933 99.4025642,51.0090933 C97.8024959,51.0090933 97.5736614,49.0817511 97.6073659,48.9468726 L97.6073659,39.9650318 C97.621557,39.7840107 97.7102523,39.4592375 98.1484086,39.425518 L102.325971,39.425518 C102.772997,39.425518 103.099397,39.0599263 103.099397,38.6535162 L103.099397,37.7572843 C103.099397,37.3100557 102.772997,36.9852826 102.325971,36.9852826 L98.2211394,36.9852826 C97.7173482,36.9852826 97.6233311,36.632114 97.6073659,36.4404446 L97.6073659,32.1846741 C97.6073659,31.7782641 97.2827396,31.4126724 96.8765137,31.4126724 L95.6205846,31.4126724 C95.2125847,31.4126724 94.8063588,31.7782641 94.8063588,32.1846741 L94.8063588,36.4351205 C94.8063588,36.4351205 94.7903936,36.9426894 94.30789,36.9852826 L92.7273346,36.9852826 C92.2803084,36.9852826 91.9539091,37.3100557 91.9539091,37.7572843 L91.9539091,38.6535162 C91.9539091,39.0599263 92.2803084,39.425518 92.7273346,39.425518 L94.343368,39.425518 C94.7052459,39.4769847 94.7850719,39.794659 94.8010371,39.9188891 L94.8010371,49.1917835 C94.8010371,51.7136558 96.2467751,53.6676188 99.5001295,53.6676188 C101.412406,53.6676188 102.650597,52.6507062 103.220022,52.2833398 C103.667048,51.9993852 103.789448,51.7544743 103.505622,51.2664272 L102.895397,50.2495146 Z" id="Fill-10" fill="#B1B9C3" fill-rule="nonzero"></path>
                                        <path d="M114.617405,36.5778076 C112.219077,36.5778076 110.753826,37.7189505 110.132956,38.3401013 L110.131183,38.3401013 C110.131183,38.3401013 109.783496,38.6790721 109.783496,38.166179 L109.783496,30.4284146 C109.783496,30.0220045 109.416296,29.6564129 109.010071,29.6564129 L107.748819,29.6564129 C107.342593,29.6564129 106.975394,30.0220045 106.975394,30.4284146 L106.975394,52.4881421 C106.975394,52.8945523 107.342593,53.2601439 107.748819,53.2601439 L109.010071,53.2601439 C109.416296,53.2601439 109.783496,52.8945523 109.783496,52.4881421 L109.783496,43.5613175 C109.783496,40.5141291 112.045233,39.6303202 113.515806,39.3765358 C113.799632,39.3321679 114.09765,39.3037724 114.413406,39.3037724 C116.691108,39.3037724 118.690307,40.808732 118.690307,43.9020631 L118.690307,52.4881421 C118.690307,52.8945523 119.055733,53.2601439 119.461959,53.2601439 L120.76401,53.2601439 C121.170236,53.2601439 121.535661,52.8945523 121.535661,52.4881421 L121.535661,43.9020631 C121.535661,39.1404984 118.644185,36.5778076 114.617405,36.5778076" id="Fill-12" fill="#B1B9C3" fill-rule="nonzero"></path>
                                        <path d="M179.063974,50.9102416 C176.796915,50.9102416 175.065577,49.467397 175.065577,49.467397 L175.065577,40.9736033 C175.065577,40.9736033 176.591142,38.952201 179.269748,38.952201 C182.56745,38.952201 184.463762,41.7988465 184.463762,45.014633 C184.463762,48.3120565 182.237502,50.9102416 179.063974,50.9102416 M179.558896,36.3557906 C177.226202,36.3557906 175.611942,37.4223953 175.024777,37.8802722 L175.024777,37.7524926 C175.024777,37.3407583 174.654029,36.9698426 174.242482,36.9698426 L172.963492,36.9698426 C172.551944,36.9698426 172.181197,37.3407583 172.181197,37.7524926 L172.181197,38.4535056 L172.181197,58.9568067 C172.181197,59.368541 172.551944,59.7394567 172.963492,59.7394567 L174.242482,59.7394567 C174.654029,59.7394567 175.024777,59.368541 175.024777,58.9568067 L175.024777,52.3122677 C175.024777,52.3122677 176.715315,53.6734754 179.434722,53.6734754 C183.968841,53.6734754 187.348142,49.8791312 187.348142,45.0554515 C187.348142,40.3134086 184.05044,36.3557906 179.558896,36.3557906" id="Fill-14" fill="#B1B9C3" fill-rule="nonzero"></path>
                                        <path d="M150.433926,36.3554357 C147.794345,36.3554357 146.288294,37.6527535 145.734833,38.2472836 L145.734833,37.7521376 C145.734833,37.3404034 145.364085,36.9694876 144.952538,36.9694876 L143.675322,36.9694876 C143.262,36.9694876 142.891253,37.3404034 142.891253,37.7521376 L142.891253,52.4769614 C142.891253,52.8886956 143.262,53.2596115 143.675322,53.2596115 L144.952538,53.2596115 C145.364085,53.2596115 145.736607,52.8886956 145.736607,52.4769614 L145.736607,41.4683942 C145.736607,41.4683942 147.095424,39.1594879 150.228152,39.1594879 C150.845473,39.1594879 151.464568,39.3245366 151.835316,39.4895852 C152.246863,39.6546338 152.617611,39.6546338 152.825159,39.1186695 L153.318306,37.7166433 C153.731627,36.5613028 151.670342,36.3554357 150.433926,36.3554357" id="Fill-16" fill="#B1B9C3" fill-rule="nonzero"></path>
                                        <path d="M204.539476,14.0978272 L195.464143,14.0978272 C195.210474,14.0978272 195.180318,13.8777624 195.176769,13.8156473 C195.582995,11.4322029 197.635411,9.62199194 200.257253,9.62199194 C202.627199,9.62199194 204.511093,11.5546583 204.780728,13.7872518 C204.782502,13.8919601 204.757667,14.0978272 204.539476,14.0978272 M200.257253,7.13916342 C195.336421,7.13916342 192.285293,11.0861332 192.285293,15.6844239 C192.285293,20.3643516 195.336421,24.2296844 200.257253,24.2296844 C203.063581,24.2296844 205.259684,23.1311348 206.235336,22.3573584 C206.845561,21.9101298 206.682361,21.6652189 206.398535,21.2996272 C206.153735,20.9748541 205.949735,20.6891248 205.70671,20.3643516 C205.382084,19.917123 205.137284,20.1194407 204.567858,20.4459885 C203.633007,21.0156726 202.249355,21.6652189 200.541078,21.6652189 C197.773777,21.6652189 195.460595,19.3101699 195.128874,16.7137595 C195.139517,16.4652992 195.332874,16.3765634 195.332874,16.3765634 L206.804761,16.3765634 C207.170187,16.3765634 207.496587,16.090834 207.537387,15.6844239 C207.578186,15.4004692 207.618987,14.8716037 207.618987,14.5858743 C207.618987,10.3141314 204.527059,7.13916342 200.257253,7.13916342" id="Fill-18" fill="#B1B9C3" fill-rule="nonzero"></path>
                                        <path d="M237.845556,20.8117576 C237.641556,20.4869845 237.48013,20.2420736 236.869905,20.5668468 C236.869905,20.5668468 235.951018,21.5713364 234.352723,21.5713364 C232.752655,21.5713364 232.523821,19.6439941 232.557525,19.5091157 L232.557525,10.5272749 C232.571716,10.3462538 232.660412,10.0214806 233.098568,9.98776104 L237.27613,9.98776104 C237.723156,9.98776104 238.049556,9.62216942 238.049556,9.21575929 L238.049556,8.31952743 C238.049556,7.8722988 237.723156,7.54752569 237.27613,7.54752569 L233.171299,7.54752569 C232.667507,7.54752569 232.57349,7.1943571 232.557525,7.00268768 L232.557525,2.74691724 C232.557525,2.34050714 232.232899,1.97491551 231.826674,1.97491551 L230.570744,1.97491551 C230.162744,1.97491551 229.756518,2.34050714 229.756518,2.74691724 L229.756518,6.99736356 C229.756518,6.99736356 229.740553,7.50493252 229.258049,7.54752569 L227.677494,7.54752569 C227.230468,7.54752569 226.904068,7.8722988 226.904068,8.31952743 L226.904068,9.21575929 C226.904068,9.62216942 227.230468,9.98776104 227.677494,9.98776104 L229.293527,9.98776104 C229.655405,10.0392278 229.735231,10.3569021 229.751196,10.4811322 L229.751196,19.7540266 C229.751196,22.2758988 231.196935,24.2298619 234.450289,24.2298619 C236.362566,24.2298619 237.600756,23.2129493 238.170182,22.8455829 C238.617208,22.5616283 238.739608,22.3167174 238.455782,21.8286703 L237.845556,20.8117576 Z" id="Fill-20" fill="#B1B9C3" fill-rule="nonzero"></path>
                                        <path d="M218.207821,7.13987325 C215.809492,7.13987325 214.344241,8.28101607 213.723372,8.9021669 L213.723372,8.9021669 C213.723372,8.9021669 213.373911,9.24113778 213.373911,8.72824464 L213.373911,8.31118627 C213.373911,7.90477615 213.006711,7.53918453 212.600485,7.53918453 L211.339234,7.53918453 C210.933009,7.53918453 210.565809,7.90477615 210.565809,8.31118627 L210.565809,23.0502077 C210.565809,23.4566179 210.933009,23.8222095 211.339234,23.8222095 L212.600485,23.8222095 C213.006711,23.8222095 213.373911,23.4566179 213.373911,23.0502077 L213.373911,14.1233831 C213.373911,11.0761947 215.635649,10.1923858 217.106221,9.93860137 C217.390047,9.89423347 217.688064,9.865838 218.003821,9.865838 C220.281524,9.865838 222.280722,11.3707977 222.280722,14.4641288 L222.280722,23.0502077 C222.280722,23.4566179 222.646148,23.8222095 223.052374,23.8222095 L224.354425,23.8222095 C224.760651,23.8222095 225.12785,23.4566179 225.12785,23.0502077 L225.12785,14.4641288 C225.12785,9.70256405 222.2346,7.13987325 218.207821,7.13987325" id="Fill-22" fill="#B1B9C3" fill-rule="nonzero"></path>
                                        <path d="M89.5156673,21.4715973 C91.5769528,21.4715973 93.3490906,20.4830801 94.0497853,19.4519698 L94.0497853,16.3941331 C93.5566382,15.8883388 92.048813,15.1287601 90.2358754,15.1287601 C87.928016,15.1287601 86.3403654,16.1101784 86.3403654,18.2540361 C86.3403654,19.9045225 87.7435295,21.4715973 89.5156673,21.4715973 M90.5871098,12.7701617 C92.3592476,12.7701617 94.0905857,13.8864585 94.0905857,13.8864585 C94.1313854,10.8339459 92.8931951,9.43191978 90.5427618,9.43191978 C88.2774769,9.43191978 87.2078079,10.0512959 86.4663129,10.3405747 C86.0529912,10.5038486 85.8064179,10.2979815 85.682244,9.9270657 L85.3522965,8.89595535 C85.1873228,8.40258416 85.4356701,8.1541238 85.8064179,7.98907518 C86.0529912,7.86661973 87.5767816,6.91714633 90.6669358,6.91714633 C94.871107,6.91714633 96.7691923,9.06100403 96.7691923,13.8864585 L96.7691923,23.0386721 C96.7691923,23.452181 96.3984445,23.8230968 95.9868975,23.8230968 L94.906585,23.8230968 C94.4524636,23.8230968 94.3300637,23.5746365 94.2058897,23.2037207 L94.1721858,22.0909734 C93.3065168,22.9570351 91.6177526,23.9455523 89.0615459,23.9455523 C86.1771652,23.9455523 83.7043321,21.5532342 83.7043321,18.2540361 C83.7043321,15.1216613 86.3421389,12.7701617 90.5871098,12.7701617" id="Fill-24" fill="#B1B9C3" fill-rule="nonzero"></path>
                                        <path d="M124.228636,21.4715973 C126.289922,21.4715973 128.06206,20.4830801 128.762755,19.4519698 L128.762755,16.3941331 C128.269608,15.8883388 126.761783,15.1287601 124.948845,15.1287601 C122.640986,15.1287601 121.055109,16.1101784 121.055109,18.2540361 C121.055109,19.9045225 122.456499,21.4715973 124.228636,21.4715973 M125.30008,12.7701617 C127.072217,12.7701617 128.803555,13.8864585 128.803555,13.8864585 C128.844355,10.8339459 127.606165,9.43191978 125.257506,9.43191978 C122.990446,9.43191978 121.920778,10.0512959 121.179283,10.3405747 C120.765961,10.5038486 120.519387,10.2979815 120.395214,9.9270657 L120.065266,8.89595535 C119.900292,8.40258416 120.14864,8.1541238 120.519387,7.98907518 C120.765961,7.86661973 122.289751,6.91714633 125.379906,6.91714633 C129.584076,6.91714633 131.482162,9.06100403 131.482162,13.8864585 L131.482162,23.0386721 C131.482162,23.452181 131.111414,23.8230968 130.699867,23.8230968 L129.619555,23.8230968 C129.165433,23.8230968 129.043033,23.5746365 128.918859,23.2037207 L128.885155,22.0909734 C128.019486,22.9570351 126.330722,23.9455523 123.774516,23.9455523 C120.890135,23.9455523 118.417302,21.5532342 118.417302,18.2540361 C118.417302,15.1216613 121.055109,12.7701617 125.30008,12.7701617" id="Fill-26" fill="#B1B9C3" fill-rule="nonzero"></path>
                                        <path d="M159.082455,20.8117576 C158.878455,20.4869845 158.717029,20.2420736 158.106804,20.5668468 C158.106804,20.5668468 157.187917,21.5713364 155.589623,21.5713364 C153.989554,21.5713364 153.76072,19.6439941 153.794424,19.5091157 L153.794424,10.5272749 C153.808615,10.3462538 153.897311,10.0214806 154.335467,9.98776104 L158.513029,9.98776104 C158.960055,9.98776104 159.286455,9.62216942 159.286455,9.21575929 L159.286455,8.31952743 C159.286455,7.8722988 158.960055,7.54752569 158.513029,7.54752569 L154.408197,7.54752569 C153.904407,7.54752569 153.810389,7.1943571 153.794424,7.00268768 L153.794424,2.74691724 C153.794424,2.34050714 153.469798,1.97491551 153.063572,1.97491551 L151.807643,1.97491551 C151.399643,1.97491551 150.993417,2.34050714 150.993417,2.74691724 L150.993417,6.99736356 C150.993417,6.99736356 150.977452,7.50493252 150.496722,7.54752569 L148.914392,7.54752569 C148.467367,7.54752569 148.140967,7.8722988 148.140967,8.31952743 L148.140967,9.21575929 C148.140967,9.62216942 148.467367,9.98776104 148.914392,9.98776104 L150.530427,9.98776104 C150.892304,10.0392278 150.97213,10.3569021 150.988096,10.4811322 L150.988096,19.7540266 C150.988096,22.2758988 152.433834,24.2298619 155.687188,24.2298619 C157.599465,24.2298619 158.837655,23.2129493 159.407081,22.8455829 C159.854106,22.5616283 159.976506,22.3167174 159.69268,21.8286703 L159.082455,20.8117576 Z" id="Fill-28" fill="#B1B9C3" fill-rule="nonzero"></path>
                                        <path d="M107.772944,21.4723072 C105.505885,21.4723072 103.774547,20.0294626 103.774547,20.0294626 L103.774547,11.5356689 C103.774547,11.5356689 105.300112,9.51426661 107.978718,9.51426661 C111.27642,9.51426661 113.172732,12.3609121 113.172732,15.5766986 C113.172732,18.8741221 110.946473,21.4723072 107.772944,21.4723072 M108.267866,6.91785623 C105.935172,6.91785623 104.320912,7.98446089 103.733747,8.44233783 L103.733747,8.31455819 C103.733747,7.90282394 103.362999,7.5319082 102.951452,7.5319082 L101.672462,7.5319082 C101.260914,7.5319082 100.890167,7.90282394 100.890167,8.31455819 L100.890167,9.0155713 L100.890167,29.5188724 C100.890167,29.9306066 101.260914,30.3015223 101.672462,30.3015223 L102.951452,30.3015223 C103.362999,30.3015223 103.733747,29.9306066 103.733747,29.5188724 L103.733747,22.8743333 C103.733747,22.8743333 105.424285,24.235541 108.143692,24.235541 C112.677811,24.235541 116.057112,20.4411968 116.057112,15.6175171 C116.057112,10.8754743 112.75941,6.91785623 108.267866,6.91785623" id="Fill-30" fill="#B1B9C3" fill-rule="nonzero"></path>
                                        <path d="M143.092414,6.91750128 C140.452833,6.91750128 138.946782,8.21481914 138.393322,8.80934923 L138.393322,8.31420325 C138.393322,7.902469 138.022575,7.53155326 137.611027,7.53155326 L136.333811,7.53155326 C135.920489,7.53155326 135.549742,7.902469 135.549742,8.31420325 L135.549742,23.039027 C135.549742,23.4507613 135.920489,23.8216771 136.333811,23.8216771 L137.611027,23.8216771 C138.022575,23.8216771 138.393322,23.4507613 138.393322,23.039027 L138.393322,12.0304598 C138.393322,12.0304598 139.753912,9.72155352 142.88664,9.72155352 C143.503962,9.72155352 144.123057,9.8866022 144.493804,10.0516508 C144.905352,10.2166995 145.2761,10.2166995 145.483647,9.68073508 L145.976795,8.27870893 C146.390116,7.1233684 144.328831,6.91750128 143.092414,6.91750128" id="Fill-32" fill="#B1B9C3" fill-rule="nonzero"></path>
                                        <path d="M182.524166,7.13987325 C180.022951,7.13987325 177.961666,8.43186699 176.758953,10.435522 C175.602363,8.27924135 173.436417,7.13987325 170.761358,7.13987325 C168.363029,7.13987325 166.897778,8.28101607 166.276909,8.9021669 L166.276909,8.9021669 C166.276909,8.9021669 165.927448,9.24113778 165.927448,8.72824464 L165.927448,8.31118627 C165.927448,7.90477615 165.562023,7.53918453 165.154023,7.53918453 L163.894545,7.53918453 C163.486545,7.53918453 163.12112,7.90477615 163.12112,8.31118627 L163.12112,23.0502077 C163.12112,23.4566179 163.486545,23.8222095 163.894545,23.8222095 L165.154023,23.8222095 C165.562023,23.8222095 165.927448,23.4566179 165.927448,23.0502077 L165.927448,14.1233831 C165.927448,11.0761947 168.19096,10.1923858 169.661533,9.93860137 C169.945358,9.89423347 170.241602,9.865838 170.559131,9.865838 C172.836835,9.865838 174.834259,11.3707977 174.834259,14.4641288 L174.834259,23.0502077 C174.834259,23.4566179 175.199685,23.8222095 175.607685,23.8222095 L176.916832,23.8222095 C177.323057,23.8222095 177.690257,23.4566179 177.690257,23.0502077 L177.690257,14.1233831 C177.690257,11.0761947 179.951994,10.1923858 181.422568,9.93860137 C181.706393,9.89423347 182.004411,9.865838 182.320166,9.865838 C184.59787,9.865838 186.597068,11.3707977 186.597068,14.4641288 L186.597068,23.0502077 C186.597068,23.4566179 186.962494,23.8222095 187.36872,23.8222095 L188.670771,23.8222095 C189.076997,23.8222095 189.442422,23.4566179 189.442422,23.0502077 L189.442422,14.4641288 C189.442422,9.70256405 186.550946,7.13987325 182.524166,7.13987325" id="Fill-34" fill="#B1B9C3" fill-rule="nonzero"></path>
                                    </g>
                                </g>
                            </g>
                        </g>
                    </g>
                </g>
            </g>
        </g>
    </g>
</svg>