<svg xmlns="http://www.w3.org/2000/svg" viewBox="0 0 812.92 116.77"><defs><style>.cls-1{fill:#b1b9c3;}</style></defs><title>Asset 1</title><g id="Layer_2" data-name="Layer 2"><g id="Layer_1-2" data-name="Layer 1"><path class="cls-1" d="M31.78,44.14c.44-.49.68-.73.89-1,6.06-7.57,14-11.3,23.63-11.53a51.8,51.8,0,0,1,8.57.73c6.17.89,10.23,4.7,13.19,9.92l.53.94s.06,0,.25.2a8.61,8.61,0,0,0,1.17-1,30.45,30.45,0,0,1,22.8-11.31,29.49,29.49,0,0,1,10.1.93c7.27,2.19,11.63,7.07,12.84,14.59a50.62,50.62,0,0,1,.68,7.75c.08,17.28.05,34.56.14,51.83a55.51,55.51,0,0,0,.78,6.9c.23,1.78-.43,2.58-2.21,2.6-5.32,0-10.63.14-16,.15-3.76,0-7.51-.09-11.27-.16-1.61,0-2-.36-1.89-2,.12-2.27.49-4.53.51-6.8,0-4.11-.07-8.23-.12-12.34s-.07-8.31-.18-12.47q-.3-12.1-.69-24.21c-.1-3.16-3.18-5.47-6.72-5.17-5,.43-8.34,3.69-9.33,9.12a19.41,19.41,0,0,0-.31,3.46c0,13,0,26.08.1,39.11a83.76,83.76,0,0,0,.84,8.94c.21,1.76-.22,2.35-2,2.35l-28,.1c-1.66,0-2.06-.4-1.92-2.07.28-3.35.72-6.68.85-10,.15-3.75.07-7.51,0-11.27-.1-6-.26-12.07-.4-18.1-.1-4.59-.16-9.19-.33-13.78-.1-2.66-1.13-5-3.58-6.25a7.65,7.65,0,0,0-8.2.58,10.61,10.61,0,0,0-4.72,9Q31.82,78,31.82,92.25c0,4.92,0,9.84.2,14.75a55.54,55.54,0,0,0,1,6.62c.22,1.33-.35,2-1.69,2H2.55c-1.42,0-1.59-.15-1.53-1.6.15-3.39.43-6.78.49-10.17.07-4.27,0-8.55-.06-12.83-.07-6.24-.16-12.47-.24-18.71-.07-6-.07-12.07-.24-18.11-.05-2-.63-3.94-.79-5.93-.31-3.87-.63-3.4,2.61-4.95,8.43-4,16.9-8,25.35-12,2.58-1.22,3-1,3.1,1.88.1,3,.14,6.07.24,9.11A14.39,14.39,0,0,0,31.78,44.14Z"/><path class="cls-1" d="M139.51,43.71c-.07-2.2-.15-4.25-.18-6.31,0-.92.17-1.84.11-2.75a2.47,2.47,0,0,1,1.95-2.77,52.7,52.7,0,0,1,7.62-2A126.38,126.38,0,0,1,164.5,28.4a41.47,41.47,0,0,1,19.25,4.26,29.81,29.81,0,0,1,15.9,18.89c2.07,7.13,3.77,14.36,5.55,21.57,2,8.14,3.89,16.31,5.83,24.47a4.7,4.7,0,0,0,2.3,3.22,20.42,20.42,0,0,0,3.41,1.42c1.62.52,2.09.88,2.13,2.53a80.11,80.11,0,0,1-.07,8c-.16,2.09-.57,2.7-2.81,2.65-5-.12-10,0-15-.3a23.11,23.11,0,0,1-14.84-6.22,1.06,1.06,0,0,0-1.66,0c-6.39,5.66-14,7.62-22.36,7.74-7.29.1-14.15-1.3-20.31-5.33s-10.22-9.3-11.2-16.66c-1.18-8.9,1.73-16.36,8.31-22.42,5.59-5.15,12.32-8.06,19.61-9.8,2.32-.55,4.71-.8,7.07-1.21a9.36,9.36,0,0,0,2-.49,1.85,1.85,0,0,0,1.26-2.46,24.59,24.59,0,0,0-6-12,14.44,14.44,0,0,0-13.37-4.89c-2.91.37-5.76,1.23-8.64,1.88C140.5,43.38,140.14,43.52,139.51,43.71Zm32.07,29a23.19,23.19,0,0,0-2.87,1c-8.59,4.38-10.22,17.2-3.8,23.56,3.35,3.31,10,2.69,12.93.43A1.47,1.47,0,0,0,178.4,96c-1.49-5-2.92-10-4.38-15.05C173.25,78.25,172.43,75.59,171.58,72.75Z"/><path class="cls-1" d="M542.35,43.44c0-3.1,0-6.32,0-9.55,0-1.21,1-1.74,1.93-2a51.69,51.69,0,0,1,7.63-2,119.3,119.3,0,0,1,15.37-1.43,41.18,41.18,0,0,1,21.06,5.19,30.41,30.41,0,0,1,14.52,19c2.18,8,4.06,16,6,24,1.62,6.63,3.28,13.26,4.73,19.93a6.68,6.68,0,0,0,5,5.37l.46.14c2.38.72,2.65,1,2.69,3.45s0,5-.15,7.54c-.08,1.7-.72,2.32-2.35,2.31-5.11,0-10.24.08-15.34-.27A23,23,0,0,1,589,108.86c-.69-.67-1.21-.33-1.75.15a28.51,28.51,0,0,1-15,7c-9.91,1.51-19.48.79-28.08-5.06-5.66-3.85-9.56-8.94-10.58-15.87-1.33-9,1.48-16.54,8.1-22.71,5.88-5.49,13-8.42,20.73-10.17,2-.46,4.1-.64,6.14-1a8.27,8.27,0,0,0,2-.5,1.87,1.87,0,0,0,1.24-2.29c-1.26-6.25-4.2-11.47-9.53-15.1a13.81,13.81,0,0,0-9.92-1.9C549,41.87,545.82,42.72,542.35,43.44Zm32.43,31.62c-1.28.56-2.2.87-3,1.34-7.49,4.35-9.58,13.8-5.53,21.27,2.88,5.31,9.16,6.73,14.24,3.45a1.75,1.75,0,0,0,.86-2.21c-1.49-5.3-2.9-10.62-4.35-15.94C576.28,80.41,575.56,77.86,574.78,75.06Z"/><path class="cls-1" d="M398.77,104.45c0,1.92.09,3.84-.05,5.75a2.36,2.36,0,0,1-1.1,1.75c-15.22,5.69-30.64,6.76-46,.93-13.8-5.24-21.76-15.86-25.32-29.83-3-11.9-1.08-23.28,4.62-34.11,5.51-10.46,14.31-16.54,25.57-19.19a46.28,46.28,0,0,1,28.72,2c11.24,4.6,18.18,13.21,22.08,24.47a42.11,42.11,0,0,1,2.23,12.7c0,1.73-.36,2.26-2.07,2.67l-45.54,11a12.79,12.79,0,0,0-1.39.35,1.22,1.22,0,0,0-.85,1.7c1.53,4.19,3.4,8.22,6.59,11.44,4.25,4.3,9.58,5.89,15.49,5.75a35.43,35.43,0,0,0,15.12-4.17c1.51-.76,2.14-.39,2.16,1.32s0,3.68,0,5.52ZM357.18,65q0,1.92,0,3.83c0,1.36.51,1.8,1.87,1.52,1.84-.38,3.66-.8,5.49-1.22L377.69,66a1.75,1.75,0,0,0,1.53-2.17c-.48-3.23-.77-6.5-1.46-9.69a15.23,15.23,0,0,0-5-8.9,6.78,6.78,0,0,0-7.18-1.09c-3.06,1.15-4.49,3.72-5.73,6.43C357.72,55.16,357.4,60.06,357.18,65Z"/><path class="cls-1" d="M802.3,104.42c0,1.84,0,3.68,0,5.52a2.08,2.08,0,0,1-1.48,2.18,68,68,0,0,1-22.93,4.5,57.94,57.94,0,0,1-22.8-3.69c-12.48-4.89-20.31-14.16-24.41-26.63-4-12.23-2.77-24.19,2.89-35.72.3-.61.61-1.21.92-1.82C739.3,39.34,747.21,33.6,757,30.52a46.46,46.46,0,0,1,27.77-.13C799,34.67,807.35,44.6,811.43,58.49A35.06,35.06,0,0,1,812.91,69c0,1.8-.29,2.18-2.1,2.61l-17.47,4.2-28.76,6.93c-1.56.38-1.87.9-1.23,2.39a67.35,67.35,0,0,0,2.94,6.28c4.16,7.41,10.72,10.55,19,10.36a34.57,34.57,0,0,0,14.78-4.06c1.81-.91,2.45-.52,2.44,1.55,0,1.72,0,3.43,0,5.15Zm-41.62-39.2c0,1.16,0,2.32,0,3.47,0,1.5.49,2,2,1.63,1.83-.4,3.66-.8,5.49-1.23l13-3.09a1.76,1.76,0,0,0,1.53-2.16c-.28-2.3-.37-4.62-.79-6.89-.71-3.82-1.75-7.54-4.5-10.53-3.67-4-8.93-3.82-12,.67a25.69,25.69,0,0,0-3,6.19C761,57.12,760.81,61.18,760.69,65.22Z"/><path class="cls-1" d="M526.14,54q0,24,0,48a57.52,57.52,0,0,0,1.29,11.65c.35,1.71.06,2.09-1.72,2.1q-15,.09-30,.14c-1.58,0-2.06-.5-1.77-2,1.45-7.69.93-15.45.88-23.19,0-5.56-.14-11.11-.17-16.67-.09-16.07-.13-32.14-.3-48.21a17.19,17.19,0,0,0-1.23-4.95,35.45,35.45,0,0,0-1.55-3.37c-.66-1.48-.44-2.23,1-3,1.87-1,3.76-1.93,5.69-2.8,8.25-3.75,16.52-7.44,24.75-11.21,1.54-.71,2.16-.08,2.18,1.41,0,4.56.12,9.11.18,13.67q.26,19.24.51,38.48Z"/><path class="cls-1" d="M484.78,38.92c0,1.84,0,3.68,0,5.51s-.64,2.15-2.19,1.46a26,26,0,0,0-15.05-2.31,15,15,0,0,0-10.6,7.11A28.17,28.17,0,0,0,452.6,65c-.39,10,1.58,19.32,7.78,27.42,3,3.9,6.6,7,11.58,8,2,.37,4,0,6.06.1,2.57.07,4.76-1.3,7.18-1.8,1.12-.23,1.84,0,1.84,1.11,0,3.79-.15,7.58-.21,11.36,0,1-.56,1.37-1.36,1.73a35.34,35.34,0,0,1-9.84,2.48,81.61,81.61,0,0,1-16,.78c-9-.62-17.45-2.86-24.43-8.92a39,39,0,0,1-11-15.74A50.87,50.87,0,0,1,422,61.34c2.65-11.64,8.76-21.12,19.18-27.4a42,42,0,0,1,17.45-5.54,53.34,53.34,0,0,1,24.19,2.79,2.27,2.27,0,0,1,1.76,2.47c-.07,1.76,0,3.52,0,5.28Z"/><path class="cls-1" d="M705,39.72c1.1-1.11,2-2,2.87-2.91,4-4.32,8.66-7.3,14.56-8.12a21.58,21.58,0,0,1,9.25.68c1.43.43,1.86,1,1.5,2.48-1.25,5-2.56,10.05-3.85,15.08-.25,1-.55,1.92-.78,2.89a1.86,1.86,0,0,1-2.18,1.56c-2.95-.12-5.91-.38-8.85-.23a13.21,13.21,0,0,0-10.24,5c-2,2.63-2.41,5.8-2.55,9-.19,4.39-.23,8.79-.26,13.19,0,6.56,0,13.12-.05,19.68,0,3.72,0,7.43.06,11.15,0,1.46.51,2.91.63,4.38.15,1.78-.22,2.17-2,2.2-4.56.09-9.11.2-13.67.15-5-.05-10.07-.27-15.1-.41l-1.08,0c-1.61-.08-1.81-.3-1.66-1.88a202.53,202.53,0,0,0,.53-23.24c-.09-5.15.18-10.31.16-15.47q0-12.11-.29-24.22a37.88,37.88,0,0,0-.75-5.7c-.39-2.23,0-2.92,2-3.78C678.19,39,683.13,37,688,34.86c4.57-2,9.1-4.09,13.65-6.14.18-.08.37-.14.56-.21,1.54-.56,2.18-.2,2.26,1.44.1,2.19.06,4.39.13,6.58C704.67,37.5,704.83,38.47,705,39.72Z"/><path class="cls-1" d="M255.6,40.73c.32-.37.68-.71,1-1.11a23.73,23.73,0,0,1,16.79-10.23,21.34,21.34,0,0,1,8.55.63,1.56,1.56,0,0,1,1.3,2.16q-2.28,9.18-4.66,18.33c-.28,1.07-1.12,1.32-2.15,1.21a34.82,34.82,0,0,0-9.67,0c-7.11,1.25-10.85,5.34-11,12.6-.18,7.83-.08,15.67,0,23.5,0,6.32.09,12.63.25,18.95a53,53,0,0,0,.71,5.81c.32,2.31-.06,3.3-3,3.3-8.88,0-17.76,0-26.64-.07a19.1,19.1,0,0,1-2.51,0c-1.63-.22-1.87-.91-1.53-2.49a36.47,36.47,0,0,0,.46-5c.26-3.75.63-7.49.69-11.25.08-5.08-.07-10.15-.14-15.23-.06-4.52-.16-9-.23-13.55-.08-5.2-.05-10.4-.29-15.59a50.85,50.85,0,0,0-1.18-7c-.3-1.58,0-2.41,1.5-3.09q14.26-6.54,28.54-13c1.86-.84,2.53-.34,2.6,1.73q.14,4,.29,8c0,.38.05.77.08,1.15Z"/><path class="cls-1" d="M659.26,71.14q0,16,0,31.91c0,2-.17,4-.13,6a34.19,34.19,0,0,0,.44,4.62c.3,1.88-.19,2.5-2.07,2.48-3.28,0-6.56,0-9.84-.05l-20.15-.16c-1.21,0-1.77-.49-1.86-1.68a10,10,0,0,1,.11-1.67c.32-3.17.87-6.34.93-9.52.2-9.15.23-18.31.27-27.47,0-7.24,0-14.47,0-21.71,0-3.2.11-6.39.15-9.59a3.08,3.08,0,0,1,2.08-2.83q13.63-6.18,27.3-12.27c2-.88,2.74-.3,2.74,1.86Q659.26,51.11,659.26,71.14Z"/><path class="cls-1" d="M283.38,80.41q0-16.31,0-32.61c0-.84,0-1.68-.09-2.51A2.82,2.82,0,0,1,285,42.39q12.49-5.93,25-11.82c.72-.34,1.48-.6,2.23-.87a1.58,1.58,0,0,1,2.34,1.19,5.9,5.9,0,0,1,.16,1.43q.1,8.86.18,17.73c.09,12,.13,24,.26,36q.12,11.21.46,22.41a36.84,36.84,0,0,0,.72,5.21c.24,1.41-.35,2.34-1.73,2.35q-12,0-24.1-.05c-1.76,0-3.52-.06-5.28-.09-1.47,0-2-.39-2-1.9,0-2.39.24-4.78.27-7.18.09-7.39.14-14.78.19-22.17,0-1.4,0-2.8,0-4.2Z"/><path class="cls-1" d="M643.79,29.6c-5.24-.06-9.51-1-13.19-3.83-9.19-7.06-5.33-17.88.67-21.81,7.37-4.83,18-4.56,25,.52s6.47,14.81,2.18,19.19a19.19,19.19,0,0,1-11,5.59C646,29.48,644.53,29.53,643.79,29.6Z"/><path class="cls-1" d="M298.93,28.66c-5-.06-9.07-1.09-12.7-3.65a13,13,0,0,1-.6-20.69c4.64-3.68,10-4.7,15.68-4.2A19,19,0,0,1,312,4.32a12.77,12.77,0,0,1,1.43,18.46c-2.91,3.3-6.76,4.71-10.91,5.5C301.1,28.54,299.69,28.58,298.93,28.66Z"/></g></g></svg>