<svg xmlns="http://www.w3.org/2000/svg" viewBox="0 0 150 32.2"><defs><style>.cls-1{fill:#b1b9c3;}</style></defs><title>refinery29-img</title><g id="Layer_2" data-name="Layer 2"><g id="Layer_1-2" data-name="Layer 1"><g id="Layer_1-3" data-name="Layer 1"><path class="cls-1" d="M45.5,17.1v5.5H43.1V10.2h4.6a4,4,0,0,1,2.7.9,3.47,3.47,0,0,1,1.1,2.6,3.63,3.63,0,0,1-1.1,2.6,2.73,2.73,0,0,1-1.3.7l4.7,5.7h-3l-4.5-5.5h-.8Zm2-2.1c.7,0,1-.1,1.2-.4a1.8,1.8,0,0,0,.4-.9,1.28,1.28,0,0,0-.4-1,1.52,1.52,0,0,0-1.2-.4h-2V15Z"/><polygon class="cls-1" points="55.5 10.2 55.5 22.7 63.2 22.7 63.2 20.5 57.9 20.5 57.9 17 61.7 17 61.7 14.9 57.9 14.9 57.9 12.3 63 12.3 63 10.2 55.5 10.2"/><polygon class="cls-1" points="66.3 10.2 66.3 22.7 68.7 22.7 68.7 17 72.6 17 72.6 14.9 68.7 14.9 68.7 12.3 73.8 12.3 73.8 10.2 66.3 10.2"/><rect class="cls-1" x="76.4" y="10.2" width="2.4" height="12.5"/><polygon class="cls-1" points="90.9 10.2 90.9 18.3 83.9 10.2 82.2 10.2 82.2 22.7 84.7 22.7 84.7 14.5 91.6 22.7 93.3 22.7 93.3 10.2 90.9 10.2"/><polygon class="cls-1" points="97 10.2 97 22.7 104.7 22.7 104.7 20.5 99.4 20.5 99.4 17 103.3 17 103.3 14.9 99.4 14.9 99.4 12.3 104.5 12.3 104.5 10.2 97 10.2"/><path class="cls-1" d="M110.3,17.1v5.5h-2.4V10.2h4.6a4,4,0,0,1,2.7.9,3.47,3.47,0,0,1,1.1,2.6,3.63,3.63,0,0,1-1.1,2.6,2.33,2.33,0,0,1-1.3.7l4.7,5.7h-3l-4.5-5.5h-.8Zm2-2.1c.7,0,1-.1,1.2-.4a1.49,1.49,0,0,0,.4-.9,1.28,1.28,0,0,0-.4-1,1.52,1.52,0,0,0-1.2-.4h-2V15Z"/><polygon class="cls-1" points="126.3 10.2 123.6 14.6 120.8 10.2 118.1 10.2 122.4 17 122.4 22.7 124.8 22.7 124.8 17 129.1 10.2 126.3 10.2"/><path class="cls-1" d="M134.7,20.5l2.6-3.2a5.31,5.31,0,0,0,1.4-3.7h0a4,4,0,0,0-4.1-3.9h-.1a4.08,4.08,0,0,0-4.1,3.9h2.4a1.7,1.7,0,1,1,3.4,0,3.67,3.67,0,0,1-1,2.5l-5.4,6.5H139V20.4h-4.3Z"/><path class="cls-1" d="M145.4,9.7a4.55,4.55,0,0,0-4.5,4.5,4.31,4.31,0,0,0,4.4,4.4h.2l-2.4,4.1h2.7l3-5.1a6.7,6.7,0,0,0,1.2-3.5,4.42,4.42,0,0,0-4.6-4.4m.1,6.7a2.3,2.3,0,1,1,2.3-2.3,2.39,2.39,0,0,1-2.3,2.3"/><path class="cls-1" d="M22.4,9.8a4,4,0,0,0-2.2.6c-.8-2.6-3.1-4-6.5-4H8.5V8.6h5.4c2.8,0,4.4,1.5,4.4,4.1s-1.5,4-4.1,4.1l.1-.2a5.94,5.94,0,0,0,1.3-3.1c0-2.2-1.5-3.6-3.9-3.6a3.87,3.87,0,0,0-3.9,3.7h2.4v-.2a1.42,1.42,0,0,1,1.5-1.5,1.31,1.31,0,0,1,1.5,1.5,4.74,4.74,0,0,1-1,2.2l-.8,1.1H8.1v2.2H10L6.5,24.1h9V21.9H10.6l2-3h1.6l5.7,7.4h2.9L21,24l3.7-5.3.2-.2c.9-1.3,1.9-2.7,1.9-4.4A4.29,4.29,0,0,0,22.4,9.8ZM20.5,14v-.4a1.86,1.86,0,0,1,1.9-1.7,1.89,1.89,0,0,1,2,2,1.89,1.89,0,0,1-2,2C21.3,16.1,20.5,15.2,20.5,14Zm-1.3,2.9a4,4,0,0,0,3.1,1.4l-2.7,3.8-2.8-3.6A7.76,7.76,0,0,0,19.2,16.9Z"/><path class="cls-1" d="M16.1,0A16.1,16.1,0,1,0,32.2,16.1,16.09,16.09,0,0,0,16.1,0ZM29.9,16.1A13.8,13.8,0,1,1,16.1,2.3,13.83,13.83,0,0,1,29.9,16.1Z"/></g></g></g></svg>